<svg width="18" height="19" viewBox="0 0 18 19" fill="none" xmlns="http://www.w3.org/2000/svg">
<circle cx="9" cy="9.5" r="8.5" fill="white" stroke="#78BCFC"/>
<path d="M8.97235 5.80407C8.33635 5.80407 7.61635 5.97207 7.18435 6.18807C6.82435 6.36807 6.60835 6.62007 6.60835 7.00407C6.60835 7.40007 6.83635 7.78407 7.40035 7.79607C7.96435 7.79607 8.26435 7.50807 8.82835 7.50807C9.30835 7.50807 9.65635 7.77207 9.65635 8.25207C9.65635 9.29607 7.90435 9.35607 7.86835 10.8081V10.8561C7.86835 11.5041 8.24035 11.7561 8.73235 11.7561C9.12835 11.7561 9.54835 11.4921 9.56035 10.9521V10.8921C9.56035 10.0521 11.6724 9.88407 11.6724 8.09607C11.6724 6.45207 10.2084 5.80407 8.97235 5.80407ZM8.78035 12.4161C8.15635 12.4161 7.66435 12.8841 7.66435 13.4841C7.66435 14.0961 8.15635 14.5401 8.78035 14.5401C9.41635 14.5401 9.84835 14.0841 9.84835 13.4841C9.84835 12.8841 9.40435 12.4161 8.78035 12.4161Z" fill="#18AFF7"/>
</svg>
