<svg width="24" height="24" viewBox="0 0 244 244" fill="none" xmlns="http://www.w3.org/2000/svg">
<path d="M122 244C189.379 244 244 189.379 244 122C244 54.6213 189.379 0 122 0C54.6213 0 0 54.6213 0 122C0 189.379 54.6213 244 122 244Z" fill="#FFCC4D"/>
<path d="M122 233.88C183.728 233.88 233.768 183.84 233.768 122.112C233.768 60.3845 183.728 10.3442 122 10.3442C60.2727 10.3442 10.2324 60.3845 10.2324 122.112C10.2324 183.84 60.2727 233.88 122 233.88Z" fill="#E5A517"/>
<g opacity="0.05">
<path opacity="0.05" d="M147.168 22.3686V24.8333C146.683 25.1693 146.347 25.7668 146.347 26.4017C146.347 27.0365 146.683 27.5966 147.168 27.9701V30.024C146.646 30.36 146.272 30.9575 146.272 31.6297C146.272 32.3019 146.608 32.8994 147.168 33.2355V35.0279C146.832 35.364 146.608 35.8495 146.608 36.3723C146.608 37.4179 147.467 38.2768 148.513 38.2768C149.073 38.2768 149.596 38.0154 149.932 37.6046C163.226 42.0111 175.176 49.4424 184.922 59.0769C194.594 68.8235 202.026 80.7732 206.432 94.1047C206.021 94.4408 205.797 94.9636 205.797 95.5611C205.797 96.6067 206.656 97.4656 207.702 97.4656C208.224 97.4656 208.71 97.2416 209.046 96.9055H210.839C211.175 97.4283 211.772 97.8017 212.444 97.8017C213.116 97.8017 213.714 97.4656 214.05 96.9055H216.141C216.477 97.3909 217.037 97.727 217.71 97.727C218.344 97.727 218.905 97.3909 219.278 96.9055H221.743C222.041 97.615 222.714 98.1005 223.535 98.1005C224.581 98.1005 225.44 97.2416 225.44 96.196C225.44 95.3371 224.88 94.6275 224.133 94.3661C224.021 93.918 223.909 93.5073 223.797 93.0965H224.282C219.353 76.068 210.166 60.4586 197.283 47.5379C197.171 47.4258 197.059 47.3138 196.909 47.2018C196.797 47.0898 196.685 46.9777 196.573 46.8657C183.653 33.9823 168.043 24.7959 151.015 19.8666V20.3521C150.604 20.2401 150.156 20.128 149.745 20.016C149.484 19.2691 148.774 18.709 147.915 18.709C146.87 18.709 146.011 19.5679 146.011 20.6135C145.973 21.3977 146.496 22.0699 147.168 22.3686ZM222.228 94.7769C222.116 94.8516 222.041 94.9636 221.967 95.0383H219.465C219.278 94.5902 218.905 94.2541 218.494 94.0301C218.419 93.694 218.307 93.3952 218.195 93.0591H218.681C213.901 77.4497 205.312 63.1473 193.474 51.2722C193.362 51.1602 193.25 51.0481 193.1 50.9361C192.988 50.8241 192.876 50.712 192.764 50.6C180.889 38.7249 166.587 30.1733 150.977 25.3561V25.8415C150.641 25.7295 150.342 25.6548 150.006 25.5801C149.82 25.132 149.446 24.7959 148.998 24.6092V22.1072C149.11 22.0325 149.185 21.9578 149.26 21.8458C166.923 26.6631 182.756 35.9988 195.453 48.5461C208.075 61.2428 217.411 77.0763 222.228 94.7769ZM208.038 93.694C207.963 93.5072 207.926 93.2832 207.851 93.0965H208.299C203.855 80.1384 196.461 68.3006 186.491 58.33C186.379 58.218 186.267 58.106 186.117 57.9939C186.005 57.8819 185.893 57.7699 185.781 57.6579C175.811 47.6872 163.935 40.2933 151.015 35.8495V36.2976C150.828 36.2229 150.604 36.1856 150.417 36.1109C150.305 35.364 149.745 34.8039 149.073 34.5798V33.3848C149.372 33.2355 149.67 32.9741 149.857 32.7127C164.496 37.2685 177.64 45.2973 188.283 55.7907C198.851 66.4708 206.917 79.6156 211.473 94.3288C211.175 94.5155 210.951 94.7769 210.801 95.113H209.606C209.345 94.3661 208.747 93.806 208.038 93.694ZM213.228 94.1421C213.116 93.806 213.004 93.4699 212.93 93.1338H213.415C208.785 78.9061 200.831 65.836 189.926 54.9318C189.814 54.8198 189.702 54.7078 189.553 54.5957C189.441 54.4837 189.329 54.3717 189.217 54.2596C178.313 43.3554 165.28 35.4014 151.015 30.7708V31.2563C150.679 31.1442 150.342 31.0322 150.006 30.9202C149.82 30.4721 149.484 30.136 149.073 29.9493V28.1941C149.409 28.0448 149.67 27.8207 149.894 27.522C165.84 32.2272 180.142 40.8161 191.719 52.2058C191.793 52.2805 191.831 52.3178 191.906 52.3925C191.943 52.4298 191.98 52.4672 191.98 52.4672C203.37 64.0062 211.959 78.3086 216.664 94.2915C216.365 94.4782 216.141 94.7769 215.992 95.113H214.237C214.013 94.6275 213.639 94.2915 213.228 94.1421Z" fill="url(#paint0_linear_2221_16040)"/>
<path opacity="0.05" d="M96.7187 221.931V219.466C97.2042 219.13 97.5029 218.532 97.5029 217.898C97.5029 217.263 97.2042 216.703 96.7187 216.329V214.238C97.2415 213.902 97.6149 213.304 97.6149 212.632C97.6149 211.96 97.2789 211.362 96.7187 211.026V209.234C97.0548 208.898 97.2789 208.412 97.2789 207.89C97.2789 206.844 96.42 205.985 95.3744 205.985C94.8142 205.985 94.2914 206.246 93.9553 206.657C80.6238 202.251 68.7114 194.819 58.9648 185.148C49.3303 175.401 41.899 163.451 37.4925 150.157C37.9033 149.821 38.1647 149.298 38.1647 148.701C38.1647 147.655 37.3058 146.796 36.2602 146.796C35.7374 146.796 35.2519 147.02 34.8785 147.356H33.086C32.7499 146.834 32.1524 146.46 31.4803 146.46C30.8081 146.46 30.2106 146.796 29.8745 147.356H27.7833C27.4472 146.871 26.8871 146.535 26.2149 146.535C25.5801 146.535 25.0199 146.871 24.6465 147.356H22.1818C21.8831 146.647 21.2109 146.161 20.3894 146.161C19.3438 146.161 18.4849 147.02 18.4849 148.066C18.4849 148.925 19.045 149.634 19.7919 149.896C19.9786 150.568 20.1653 151.24 20.352 151.912H19.8666C24.8705 168.679 33.9449 184.027 46.6789 196.724C46.791 196.836 46.903 196.948 47.015 197.06C47.127 197.172 47.2391 197.284 47.3511 197.396C60.0478 210.093 75.4331 219.205 92.1628 224.209V223.723C92.835 223.91 93.5072 224.096 94.1794 224.283C94.4408 225.03 95.1503 225.59 96.0092 225.59C97.0548 225.59 97.9137 224.731 97.9137 223.686C97.9137 222.902 97.4282 222.229 96.7187 221.931ZM48.322 195.641C35.8121 183.019 26.4763 167.186 21.659 149.522C21.7711 149.448 21.8457 149.336 21.9204 149.261H24.4224C24.6091 149.709 24.9826 150.045 25.3933 150.269C25.5427 150.829 25.7294 151.389 25.8788 151.95H25.3933C30.2106 167.26 38.6875 181.301 50.3759 192.99C50.4879 193.102 50.6 193.214 50.712 193.326C50.824 193.438 50.936 193.55 51.0481 193.662C62.7365 205.35 76.7775 213.827 92.0882 218.644V218.159C92.6483 218.346 93.2085 218.495 93.7686 218.644C93.9553 219.093 94.3288 219.429 94.7769 219.615V222.117C94.6648 222.192 94.5902 222.267 94.5155 222.379C76.8522 217.599 60.9813 208.226 48.322 195.641ZM35.8868 150.605C36.0361 151.053 36.1855 151.501 36.3349 151.912H35.8868C40.3679 164.572 47.6498 176.185 57.4337 185.969C57.5458 186.081 57.6578 186.193 57.7698 186.305C57.8819 186.417 57.9939 186.529 58.1059 186.641C67.8898 196.425 79.5035 203.707 92.1628 208.188V207.74C92.611 207.89 93.0591 208.039 93.4699 208.188C93.5819 208.935 94.142 209.495 94.8142 209.719V210.914C94.5155 211.064 94.2167 211.325 94.03 211.587C79.3542 207.031 66.2094 198.965 55.5666 188.434C45.0358 177.791 36.9697 164.646 32.4139 149.97C32.7126 149.784 32.9367 149.522 33.086 149.186H34.3557C34.5798 149.97 35.1399 150.493 35.8868 150.605ZM30.6961 150.194C30.8828 150.792 31.0695 151.352 31.2562 151.95H30.7708C35.4386 165.916 43.318 178.687 54.0355 189.405C54.1475 189.517 54.2596 189.629 54.3716 189.741C54.4836 189.853 54.5957 189.965 54.7077 190.077C65.4252 200.794 78.1965 208.674 92.1628 213.342V212.856C92.7603 213.043 93.3205 213.23 93.918 213.416C94.1047 213.864 94.4408 214.201 94.8516 214.387V216.142C94.5155 216.292 94.2167 216.516 94.03 216.815C78.0098 212.109 63.6327 203.446 52.0563 191.981C40.592 180.405 31.9657 166.065 27.2605 150.045C27.5592 149.858 27.7833 149.56 27.9327 149.224H29.6878C29.9119 149.672 30.2479 150.008 30.6961 150.194Z" fill="url(#paint1_linear_2221_16040)"/>
<path opacity="0.05" d="M101.498 198.702C100.938 198.702 100.415 198.964 100.079 199.337C86.7105 195.566 74.7607 188.433 65.1635 178.948C55.6783 169.351 48.5458 157.364 44.7741 144.032C45.1476 143.696 45.409 143.173 45.409 142.613C45.409 141.567 44.5501 140.708 43.5045 140.708C42.7576 140.708 42.1228 141.119 41.7867 141.754H19.2314C18.7086 141.754 18.2979 142.165 18.2979 142.688C18.2979 143.21 18.7086 143.621 19.2314 143.621H38.6125C39.322 146.422 40.1809 149.223 41.1892 151.949H40.7411C45.0355 163.376 51.7573 173.869 60.645 182.757C60.757 182.869 60.869 182.981 60.981 183.093C61.0931 183.205 61.2051 183.317 61.3171 183.429C70.2048 192.317 80.6982 199.038 92.1252 203.333V202.885C94.8513 203.893 97.6146 204.752 100.453 205.462V224.843C100.453 225.365 100.863 225.776 101.386 225.776C101.909 225.776 102.32 225.365 102.32 224.843V202.287C102.917 201.951 103.365 201.316 103.365 200.57C103.403 199.561 102.544 198.702 101.498 198.702ZM62.1387 181.973C51.7573 171.479 44.1019 158.297 40.2183 143.621H41.8614C42.1601 144.144 42.7203 144.48 43.3924 144.518C44.1019 147.019 44.9235 149.484 45.8571 151.911H45.4463C49.554 162.181 55.7157 171.591 63.7818 179.657C63.8938 179.769 64.0058 179.881 64.1179 179.993C64.2299 180.106 64.3419 180.218 64.454 180.367C72.5201 188.433 81.9305 194.595 92.1999 198.702V198.292C94.6272 199.225 97.0919 200.047 99.5938 200.756C99.6312 201.391 100.005 201.951 100.49 202.287V203.93C85.7769 200.047 72.6321 192.354 62.1387 181.973Z" fill="url(#paint2_linear_2221_16040)"/>
<path opacity="0.05" d="M107.995 195.977V187.5C107.995 187.463 107.995 187.425 107.995 187.388C108.294 187.127 108.481 186.753 108.481 186.305C108.481 185.521 107.846 184.849 107.024 184.849C106.614 184.849 106.203 185.035 105.941 185.334C94.3651 182.421 83.9837 176.446 75.7682 168.306C67.6274 160.053 61.6525 149.709 58.7397 138.132C59.0385 137.871 59.2252 137.498 59.2252 137.05C59.2252 136.265 58.5903 135.593 57.7688 135.593C57.3207 135.593 56.9472 135.78 56.6858 136.079C56.6485 136.079 56.6111 136.079 56.5738 136.079H48.0969C47.7608 135.556 47.1633 135.182 46.4912 135.182C45.819 135.182 45.2215 135.518 44.8854 136.079H18.185C17.6622 136.079 17.2515 136.489 17.2515 137.012C17.2515 137.535 17.6622 137.946 18.185 137.946H44.8107C45.0721 138.506 45.5949 138.917 46.2298 138.991C47.2007 143.398 48.545 147.73 50.2628 151.875H49.852C53.7357 161.024 59.3745 169.463 66.6191 176.708C66.7311 176.82 66.8432 176.932 66.9552 177.044C67.0672 177.156 67.1793 177.268 67.2913 177.38C74.5359 184.625 82.9381 190.263 92.1245 194.147V193.736C96.2696 195.454 100.601 196.798 105.008 197.769C105.12 198.404 105.493 198.927 106.053 199.188V225.926C106.053 226.449 106.464 226.86 106.987 226.86C107.51 226.86 107.921 226.449 107.921 225.926V199.188C108.443 198.852 108.817 198.255 108.817 197.583C108.892 196.91 108.518 196.313 107.995 195.977ZM68.0008 176.11C57.9928 165.99 50.7856 153.107 47.5741 138.767C47.8355 138.581 48.0596 138.319 48.2089 138.02H49.9641C51.0097 142.838 52.5407 147.506 54.4826 151.949H54.1092C57.7688 160.053 62.9221 167.521 69.3825 174.019C69.4945 174.131 69.6066 174.243 69.7186 174.355C69.8306 174.467 69.9427 174.579 70.0547 174.691C76.515 181.189 83.9837 186.305 92.0871 189.965V189.591C96.5683 191.57 101.236 193.064 106.016 194.11V195.865C105.717 196.014 105.456 196.238 105.269 196.5C91.0042 193.326 78.1208 186.081 68.0008 176.11ZM56.6858 137.983C56.9099 138.245 57.246 138.431 57.6194 138.506C58.7771 143.174 60.4575 147.655 62.5861 151.949H62.25C65.4241 158.111 69.5692 163.825 74.6105 168.866C74.7226 168.978 74.8346 169.09 74.9466 169.202C75.0587 169.314 75.1707 169.426 75.2827 169.538C80.3241 174.579 86.0375 178.724 92.1992 181.899V181.562C96.4936 183.691 100.975 185.371 105.643 186.529C105.68 186.903 105.867 187.239 106.166 187.463C106.166 187.5 106.166 187.5 106.166 187.537V188.994C93.5809 186.006 82.3032 179.621 73.3782 170.845C73.3782 170.845 73.3782 170.845 73.3409 170.808C64.5652 161.883 58.1422 150.605 55.1921 138.02H56.6485C56.6111 137.983 56.6485 137.983 56.6858 137.983ZM58.6277 151.949H58.2542C61.6898 159.082 66.3204 165.617 72.0339 171.368C72.1459 171.48 72.2579 171.592 72.37 171.704C72.482 171.816 72.594 171.928 72.706 172.04C78.4569 177.791 84.9919 182.421 92.1245 185.82V185.446C96.5683 187.537 101.236 189.143 106.053 190.263V192.691C92.4606 189.629 80.2494 182.795 70.6895 173.347C61.2417 163.75 54.3706 151.576 51.3458 137.983H53.7731C54.9307 142.8 56.5365 147.468 58.6277 151.949Z" fill="url(#paint3_linear_2221_16040)"/>
<path opacity="0.05" d="M113.634 182.907V178.575C113.895 178.314 114.045 177.978 114.045 177.567C114.045 176.783 113.41 176.111 112.588 176.111C112.028 176.111 111.543 176.447 111.319 176.895C100.19 174.729 90.2197 169.314 82.4523 161.659C74.797 153.891 69.3823 143.921 67.2164 132.793C67.6645 132.569 68.0006 132.083 68.0006 131.523C68.0006 130.739 67.3657 130.067 66.5442 130.067C66.1334 130.067 65.7973 130.216 65.5359 130.477H61.2041C60.9427 130.141 60.5319 129.917 60.0465 129.917C59.5984 129.917 59.1876 130.141 58.8888 130.477H17.438C16.9152 130.477 16.5044 130.888 16.5044 131.411C16.5044 131.934 16.9152 132.345 17.438 132.345H59.0009C59.2249 132.569 59.4863 132.718 59.8224 132.755C60.9427 139.477 63.146 145.937 66.3201 151.912H65.984C68.8595 157.178 72.5191 162.07 76.8882 166.439C77.0002 166.551 77.1123 166.663 77.2243 166.775C77.3363 166.887 77.4484 166.999 77.5604 167.111C81.9295 171.48 86.8215 175.14 92.0869 178.015V177.754C98.0618 180.928 104.522 183.131 111.244 184.251C111.281 184.587 111.431 184.849 111.655 185.073V226.673C111.655 227.196 112.065 227.607 112.588 227.607C113.111 227.607 113.522 227.196 113.522 226.673V185.185C113.858 184.924 114.082 184.513 114.082 184.027C114.194 183.579 113.97 183.168 113.634 182.907ZM78.1205 165.991C78.0832 165.953 78.0459 165.916 78.0085 165.841C69.2329 156.879 63.146 145.34 60.9427 132.457C61.0174 132.419 61.0547 132.382 61.0921 132.307H62.9966C64.1916 139.216 66.5442 145.825 69.9797 151.875H69.681C72.295 156.319 75.4692 160.427 79.1662 164.161C79.2782 164.273 79.3902 164.385 79.5022 164.497C79.6143 164.609 79.7263 164.721 79.8383 164.833C83.5726 168.567 87.6804 171.741 92.1242 174.318V174.019C98.1738 177.455 104.784 179.845 111.692 181.003V182.907C111.655 182.944 111.58 183.019 111.543 183.056C98.6593 180.891 87.1202 174.766 78.1579 165.991C78.1952 166.065 78.1579 166.028 78.1205 165.991ZM66.2081 132.905C67.5151 139.664 69.9797 146.087 73.5273 151.912H73.2659C75.5439 155.535 78.2699 158.933 81.3694 162.032C81.4814 162.144 81.5935 162.256 81.7055 162.368C81.8175 162.48 81.9295 162.592 82.0416 162.742C85.1411 165.841 88.5393 168.567 92.1616 170.845V170.584C98.0244 174.131 104.447 176.633 111.169 177.903C111.244 178.239 111.468 178.501 111.729 178.725V179.994C99.5928 177.866 88.726 172.04 80.3238 163.75C72.0336 155.311 66.2081 144.444 64.0795 132.345H65.3492C65.5733 132.643 65.872 132.83 66.2081 132.905Z" fill="url(#paint4_linear_2221_16040)"/>
<path opacity="0.05" d="M117.07 171.032C116.435 171.032 115.912 171.443 115.688 172.003C104.298 170.546 94.0291 165.356 86.2618 157.663C78.6811 149.896 73.5651 139.738 72.1087 128.423C72.6689 128.237 73.0796 127.676 73.0796 127.042C73.0796 126.257 72.4448 125.585 71.6232 125.585C71.2872 125.585 71.0258 125.697 70.7644 125.884H17.1396C16.6168 125.884 16.2061 126.295 16.2061 126.818C16.2061 127.34 16.6168 127.751 17.1396 127.751H68.3371C69.2333 136.452 72.1834 144.668 76.926 151.912H76.7019C78.6438 154.788 80.8843 157.514 83.3863 160.016C83.4984 160.128 83.6104 160.24 83.7224 160.352C83.8344 160.464 83.9465 160.576 84.0585 160.688C86.5605 163.19 89.2865 165.43 92.162 167.372V167.148C99.4065 171.891 107.659 174.841 116.323 175.737V226.972C116.323 227.495 116.734 227.905 117.257 227.905C117.779 227.905 118.19 227.495 118.19 226.972V173.31C118.377 173.086 118.489 172.787 118.489 172.451C118.489 171.667 117.854 171.032 117.07 171.032ZM84.544 159.754C84.5066 159.717 84.4693 159.717 84.4693 159.679C84.4319 159.642 84.3946 159.605 84.3573 159.567C76.1418 151.165 70.6523 140.074 69.3453 127.788H70.4283C70.615 128.087 70.8764 128.311 71.2125 128.423C72.2581 136.938 75.3576 144.966 80.2869 151.949H80.1001C81.6686 154.115 83.4237 156.169 85.3655 158.111C85.4776 158.223 85.5896 158.335 85.7016 158.447C85.8136 158.559 85.9257 158.671 86.0377 158.783C87.9795 160.725 90.0334 162.48 92.1993 164.049V163.862C99.1825 168.791 107.211 171.891 115.725 172.936C115.838 173.272 116.062 173.534 116.36 173.72V174.803C104.037 173.459 92.9462 167.97 84.544 159.754Z" fill="url(#paint5_linear_2221_16040)"/>
<path opacity="0.05" d="M142.426 45.596C142.986 45.596 143.509 45.3346 143.845 44.9611C157.177 48.7328 169.164 55.8653 178.761 65.3505C188.246 74.9477 195.379 86.9348 199.15 100.266C198.777 100.602 198.515 101.125 198.515 101.685C198.515 102.731 199.374 103.59 200.42 103.59C201.167 103.59 201.802 103.179 202.138 102.544H224.693C225.216 102.544 225.626 102.133 225.626 101.611C225.626 101.088 225.216 100.677 224.693 100.677H205.312C204.64 98.1004 203.893 95.5984 202.997 93.0964H203.445C199.15 81.3707 192.354 70.6532 183.242 61.5415C183.13 61.4295 183.018 61.3174 182.906 61.2054C182.794 61.0934 182.682 60.9813 182.57 60.8693C173.495 51.7949 162.741 44.9611 151.015 40.6667V41.1148C148.513 40.2186 146.011 39.4717 143.434 38.7995V19.4184C143.434 18.8956 143.023 18.4849 142.501 18.4849C141.978 18.4849 141.567 18.8956 141.567 19.4184V41.9737C140.97 42.3098 140.521 42.9446 140.521 43.6915C140.521 44.7371 141.38 45.596 142.426 45.596ZM181.786 62.3257C192.167 72.8191 199.86 86.0012 203.706 100.677H202.063C201.764 100.154 201.204 99.8182 200.532 99.7809C199.897 97.5403 199.15 95.2997 198.329 93.0964H198.777C194.669 82.5283 188.395 72.8565 180.143 64.641C180.031 64.5289 179.918 64.4169 179.769 64.3049C179.657 64.1929 179.545 64.0808 179.433 63.9688C171.18 55.716 161.508 49.4423 150.94 45.3346V45.7827C148.737 44.9611 146.534 44.2143 144.256 43.5794C144.218 42.9446 143.845 42.3845 143.36 42.0484V40.4053C158.11 44.2516 171.292 51.9443 181.786 62.3257Z" fill="url(#paint6_linear_2221_16040)"/>
<path opacity="0.05" d="M135.928 48.323V56.7999C135.928 56.8372 135.928 56.8746 135.928 56.9119C135.629 57.1733 135.443 57.5467 135.443 57.9949C135.443 58.7791 136.077 59.4512 136.899 59.4512C137.31 59.4512 137.721 59.2645 137.982 58.9658C149.446 61.8412 159.716 67.7414 167.931 75.7702C168.006 75.8449 168.118 75.9569 168.193 76.0316C168.267 76.1063 168.305 76.1436 168.379 76.2183C176.408 84.4338 182.308 94.7032 185.184 106.168C184.885 106.429 184.698 106.802 184.698 107.251C184.698 108.035 185.333 108.707 186.155 108.707C186.603 108.707 186.976 108.52 187.238 108.221C187.275 108.221 187.312 108.221 187.35 108.221H195.826C196.163 108.744 196.76 109.118 197.432 109.118C198.104 109.118 198.702 108.782 199.038 108.221H225.776C226.298 108.221 226.709 107.811 226.709 107.288C226.709 106.765 226.298 106.354 225.776 106.354H199.15C198.889 105.794 198.366 105.383 197.731 105.309C196.797 101.126 195.565 97.0932 193.997 93.1348H194.407C190.524 83.687 184.773 75.0233 177.304 67.5921C177.192 67.48 177.08 67.368 176.931 67.256C176.819 67.1439 176.707 67.0319 176.595 66.9199C169.163 59.4886 160.5 53.7377 151.052 49.8167V50.2275C147.131 48.6591 143.061 47.3894 138.878 46.4932C138.766 45.8583 138.393 45.3355 137.833 45.0741V18.3738C137.833 17.851 137.422 17.4402 136.899 17.4402C136.376 17.4402 135.965 17.851 135.965 18.3738V45.1115C135.443 45.4476 135.069 46.045 135.069 46.7172C135.032 47.3894 135.368 47.9869 135.928 48.323ZM175.885 68.1896C185.893 78.3095 193.138 91.1929 196.312 105.57C196.051 105.757 195.826 106.018 195.677 106.317H193.922C192.914 101.761 191.532 97.3546 189.702 93.0974H190.113C186.453 84.6952 181.188 77.0025 174.504 70.3181C174.392 70.2061 174.279 70.094 174.13 69.982C174.018 69.87 173.906 69.758 173.794 69.6459C167.11 62.9615 159.417 57.7335 151.015 54.0365V54.4473C146.758 52.6548 142.351 51.2358 137.795 50.2275V48.4724C138.094 48.323 138.355 48.0989 138.542 47.8375C152.882 50.9743 165.765 58.2189 175.885 68.1896ZM187.238 106.317C187.013 106.056 186.677 105.869 186.304 105.794C185.184 101.388 183.653 97.1678 181.711 93.0974H182.047C178.835 86.6371 174.578 80.6995 169.35 75.4715C169.238 75.3594 169.126 75.2474 169.014 75.1354C168.902 75.0233 168.79 74.9113 168.678 74.7993C163.45 69.5712 157.475 65.2768 151.052 62.1026V62.4387C146.982 60.4969 142.725 58.9284 138.355 57.8455C138.318 57.4721 138.131 57.136 137.833 56.9119C137.833 56.8746 137.833 56.8746 137.833 56.8372V55.3808C150.417 58.3683 161.695 64.754 170.62 73.567C179.433 82.492 185.818 93.7696 188.806 106.354H187.35C187.275 106.317 187.275 106.317 187.238 106.317ZM185.632 93.0974H186.005C182.57 85.7035 177.79 78.907 171.852 72.9695C171.74 72.8574 171.628 72.7454 171.516 72.6334C171.404 72.5214 171.292 72.4093 171.18 72.2973C165.242 66.3597 158.409 61.6171 151.015 58.1442V58.5177C146.795 56.6132 142.351 55.1194 137.795 54.0738V51.6465C151.388 54.7087 163.562 61.5425 173.159 70.9903C182.644 80.5875 189.478 92.7614 192.54 106.392H190.076C189.03 101.761 187.536 97.3546 185.632 93.0974Z" fill="url(#paint7_linear_2221_16040)"/>
<path opacity="0.05" d="M130.29 61.3924V65.7242C130.028 65.9856 129.879 66.359 129.879 66.7324C129.879 67.5166 130.514 68.1888 131.336 68.1888C131.896 68.1888 132.381 67.8527 132.605 67.4046C143.696 69.5705 153.629 74.9479 161.397 82.5659C161.434 82.6033 161.471 82.6406 161.471 82.6406C161.509 82.678 161.509 82.678 161.546 82.7153C169.164 90.4827 174.542 100.416 176.707 111.507C176.259 111.731 175.923 112.216 175.923 112.777C175.923 113.561 176.558 114.233 177.38 114.233C177.79 114.233 178.126 114.084 178.388 113.822H182.72C182.981 114.158 183.392 114.382 183.877 114.382C184.363 114.382 184.774 114.158 185.035 113.822H226.523C227.046 113.822 227.457 113.411 227.457 112.889C227.457 112.366 227.046 111.955 226.523 111.955H184.886C184.662 111.731 184.4 111.582 184.064 111.544C182.981 105.084 180.89 98.8849 177.94 93.134H178.276C175.326 87.5699 171.554 82.4539 166.961 77.8607C166.849 77.7487 166.737 77.6366 166.625 77.5246C166.513 77.4126 166.401 77.3005 166.289 77.1885C161.733 72.6327 156.579 68.8237 151.015 65.8735V66.2096C145.264 63.2222 139.066 61.1683 132.605 60.0854C132.568 59.7493 132.418 59.4879 132.194 59.2638V17.6262C132.194 17.1034 131.784 16.6926 131.261 16.6926C130.738 16.6926 130.327 17.1034 130.327 17.6262V59.1144C129.991 59.3758 129.767 59.7866 129.767 60.2721C129.767 60.7575 129.954 61.131 130.29 61.3924ZM165.803 78.3088C174.616 87.2712 180.778 98.8849 182.981 111.806C182.906 111.843 182.869 111.88 182.832 111.955H180.927C179.807 105.308 177.566 98.9596 174.355 93.0967H174.654C171.965 88.3915 168.679 84.0223 164.72 80.1013C164.608 79.9893 164.496 79.8772 164.347 79.7652C164.235 79.6532 164.123 79.5411 164.011 79.4291C160.09 75.5081 155.721 72.1845 151.015 69.4958V69.7946C145.152 66.5831 138.804 64.3425 132.157 63.2222V61.3177C132.194 61.2803 132.269 61.2057 132.306 61.1683C145.227 63.3342 156.841 69.4958 165.803 78.3088ZM177.716 111.395C176.483 104.934 174.168 98.7355 170.807 93.0967H171.106C168.716 89.213 165.878 85.5534 162.554 82.2298C162.442 82.1178 162.33 82.0058 162.218 81.8938C162.106 81.7817 161.994 81.6697 161.882 81.5577C158.559 78.2341 154.936 75.396 151.015 73.0061V73.2675C145.377 69.9439 139.178 67.6287 132.717 66.359C132.643 66.0229 132.418 65.7615 132.157 65.5375V64.2678C144.294 66.3964 155.123 72.2219 163.563 80.5121C171.853 88.9516 177.678 99.8185 179.807 111.918H178.537C178.351 111.694 178.052 111.47 177.716 111.395Z" fill="url(#paint8_linear_2221_16040)"/>
<path opacity="0.05" d="M126.854 73.3045C127.489 73.3045 128.012 72.8937 128.236 72.3335C139.588 73.7526 149.783 78.9433 157.588 86.5613C165.243 94.3287 170.396 104.561 171.853 115.913C171.293 116.1 170.882 116.66 170.882 117.295C170.882 118.079 171.517 118.751 172.338 118.751C172.674 118.751 172.936 118.639 173.197 118.452H226.859C227.382 118.452 227.793 118.042 227.793 117.519C227.793 116.996 227.382 116.585 226.859 116.585H175.55C174.654 108.183 171.89 100.192 167.446 93.1337H167.708C165.654 89.9968 163.264 87.0467 160.538 84.3207C160.426 84.2087 160.314 84.0966 160.164 83.9846C160.052 83.8726 159.94 83.7606 159.828 83.6485C157.102 80.9225 154.152 78.5325 151.015 76.4786V76.74C143.957 72.2589 135.966 69.4955 127.564 68.6366V17.3271C127.564 16.8043 127.153 16.3936 126.63 16.3936C126.107 16.3936 125.697 16.8043 125.697 17.3271V70.9892C125.51 71.2133 125.398 71.512 125.398 71.8481C125.398 72.6323 126.07 73.3045 126.854 73.3045ZM159.455 84.6568C167.708 93.059 173.272 104.187 174.579 116.548H173.496C173.309 116.249 173.048 116.025 172.712 115.913C171.703 107.697 168.791 99.9301 164.16 93.1337H164.384C162.666 90.7064 160.725 88.3911 158.596 86.2625C158.484 86.1505 158.372 86.0385 158.26 85.9265C158.148 85.8144 158.036 85.7024 157.924 85.5904C155.758 83.4618 153.48 81.52 151.053 79.8022V80.0262C144.256 75.3957 136.489 72.4829 128.273 71.4747C128.161 71.1386 127.937 70.8772 127.601 70.6905V69.6075C139.924 70.8398 151.053 76.3666 159.455 84.6568Z" fill="url(#paint9_linear_2221_16040)"/>
<path opacity="0.05" d="M223.498 146.198C222.676 146.198 222.004 146.684 221.706 147.393H219.241C218.905 146.908 218.345 146.572 217.672 146.572C217.038 146.572 216.477 146.908 216.104 147.393H214.013C213.677 146.87 213.079 146.497 212.407 146.497C211.735 146.497 211.137 146.833 210.801 147.393H209.009C208.673 147.057 208.187 146.833 207.665 146.833C206.619 146.833 205.76 147.692 205.76 148.738C205.76 149.298 206.021 149.821 206.395 150.194C201.988 163.488 194.594 175.401 184.96 185.147C175.213 194.819 163.264 202.25 149.932 206.694C149.596 206.283 149.073 206.022 148.513 206.022C147.467 206.022 146.608 206.881 146.608 207.926C146.608 208.449 146.833 208.935 147.169 209.271V211.063C146.646 211.399 146.272 211.997 146.272 212.669C146.272 213.341 146.608 213.939 147.169 214.275V216.366C146.683 216.702 146.347 217.3 146.347 217.934C146.347 218.569 146.683 219.129 147.169 219.503V221.967C146.459 222.266 145.974 222.938 145.974 223.76C145.974 224.806 146.833 225.664 147.878 225.664C148.737 225.664 149.447 225.104 149.708 224.357C150.119 224.245 150.567 224.133 150.978 224.021V224.507C168.006 219.577 183.616 210.391 196.536 197.47C196.648 197.358 196.76 197.246 196.872 197.134C196.984 197.022 197.096 196.91 197.246 196.798C209.942 184.102 219.054 168.753 224.058 151.986H223.573C223.759 151.314 223.946 150.642 224.133 149.97C224.88 149.708 225.44 148.999 225.44 148.14C225.44 147.057 224.581 146.198 223.498 146.198ZM195.64 195.603C182.943 208.225 167.073 217.598 149.297 222.453C149.222 222.378 149.11 222.266 149.036 222.191V219.689C149.484 219.503 149.82 219.129 150.044 218.719C150.38 218.644 150.679 218.532 151.015 218.42V218.905C166.624 214.125 180.927 205.536 192.802 193.661C192.914 193.549 193.026 193.437 193.138 193.325C193.25 193.213 193.362 193.101 193.511 192.989C205.2 181.301 213.677 167.26 218.494 151.949H218.009C218.195 151.389 218.345 150.829 218.494 150.269C218.942 150.082 219.278 149.709 219.465 149.26H221.967C222.042 149.372 222.116 149.447 222.228 149.522C217.448 167.148 208.15 182.944 195.64 195.603ZM150.417 208.225C150.604 208.15 150.828 208.113 151.015 208.038V208.487C163.973 204.005 175.848 196.649 185.781 186.678C185.893 186.566 186.005 186.454 186.118 186.342C186.23 186.23 186.342 186.118 186.491 186.006C196.275 176.222 203.557 164.608 208.038 151.949H207.59C207.739 151.501 207.889 151.053 208.038 150.642C208.785 150.53 209.345 149.97 209.569 149.298H210.764C210.913 149.596 211.175 149.895 211.436 150.082C206.918 164.646 198.926 177.716 188.507 188.359C177.827 199.001 164.571 207.142 149.82 211.735C149.633 211.437 149.372 211.213 149.036 211.063V209.868C149.745 209.532 150.305 208.972 150.417 208.225ZM149.969 213.416C150.305 213.304 150.642 213.192 150.978 213.08V213.565C165.205 208.935 178.275 200.981 189.18 190.076C189.292 189.964 189.404 189.852 189.516 189.74C189.628 189.628 189.74 189.516 189.889 189.404C200.607 178.687 208.486 165.915 213.154 151.949H212.668C212.855 151.352 213.042 150.791 213.229 150.194C213.639 150.007 214.013 149.671 214.2 149.26H215.955C216.104 149.596 216.328 149.895 216.627 150.082C211.922 166.027 203.37 180.293 192.018 191.832C180.404 203.371 165.99 212.109 149.857 216.851C149.671 216.553 149.372 216.329 149.036 216.179V214.424C149.484 214.2 149.82 213.827 149.969 213.416Z" fill="url(#paint10_linear_2221_16040)"/>
<path opacity="0.05" d="M19.2307 102.582H41.7859C42.122 103.179 42.7568 103.627 43.5037 103.627C44.5493 103.627 45.4082 102.768 45.4082 101.723C45.4082 101.163 45.1468 100.64 44.7734 100.304C48.545 86.9722 55.6402 75.0224 65.1254 65.4252C74.7599 55.9027 86.7097 48.7701 100.116 44.9985C100.452 45.3719 100.975 45.6333 101.535 45.6333C102.581 45.6333 103.439 44.7744 103.439 43.7288C103.439 42.982 103.029 42.3471 102.394 42.011V19.4184C102.394 18.8956 101.983 18.4849 101.46 18.4849C100.937 18.4849 100.527 18.8956 100.527 19.4184V38.7995C97.7259 39.509 94.9252 40.3679 92.1991 41.3762V40.9281C80.7721 45.2225 70.2787 51.9443 61.3911 60.832C61.279 60.944 61.167 61.056 61.055 61.2054C60.9429 61.3174 60.8309 61.4295 60.7189 61.5415C51.6445 70.6159 44.8107 81.3707 40.5163 93.0964H40.9644C40.0681 95.5984 39.3213 98.1004 38.6491 100.677H19.2307C18.7079 100.677 18.2971 101.088 18.2971 101.611C18.2598 102.133 18.7079 102.582 19.2307 102.582ZM61.9886 62.4751C72.5193 52.019 85.7388 44.289 100.489 40.4053V42.0484C99.9665 42.3845 99.6304 42.9073 99.5931 43.5794C97.0911 44.289 94.6264 45.1105 92.1991 46.0441V45.6333C81.9298 49.7411 72.5193 55.9027 64.4532 63.9688C64.3412 64.0808 64.2291 64.1929 64.1171 64.3422C64.0051 64.4543 63.8931 64.5663 63.781 64.6783C55.5282 72.9311 49.2546 82.603 45.1468 93.1338H45.5949C44.7734 95.337 44.0265 97.5403 43.3917 99.8182C42.7568 99.8555 42.1967 100.229 41.8606 100.714H40.2175C44.0639 86.0386 51.6819 72.9311 61.9886 62.4751Z" fill="url(#paint11_linear_2221_16040)"/>
<path opacity="0.05" d="M18.1848 108.184H44.9225C45.2586 108.707 45.8561 109.08 46.5282 109.08C47.2004 109.08 47.7979 108.744 48.134 108.184H56.6109C56.6483 108.184 56.6856 108.184 56.7229 108.184C56.9843 108.483 57.3578 108.67 57.8059 108.67C58.5901 108.67 59.2623 108.035 59.2623 107.213C59.2623 106.765 59.0756 106.392 58.7768 106.13C61.7269 94.4418 67.7765 84.023 76.0294 75.7329C84.2449 67.7041 94.5142 61.8039 106.016 58.9284C106.277 59.2272 106.651 59.4139 107.099 59.4139C107.883 59.4139 108.555 58.7791 108.555 57.9575C108.555 57.5094 108.369 57.136 108.07 56.8746C108.07 56.8372 108.07 56.7999 108.07 56.7625V48.2856C108.593 47.9496 108.966 47.3521 108.966 46.6799C108.966 46.0077 108.63 45.4102 108.07 45.0741V18.3738C108.07 17.851 107.659 17.4402 107.136 17.4402C106.613 17.4402 106.203 17.851 106.203 18.3738V44.9994C105.642 45.2608 105.269 45.7836 105.157 46.4185C100.751 47.3894 96.4187 48.7338 92.2736 50.4515V50.0408C83.1246 53.9245 74.685 59.5633 67.4404 66.8078C67.3284 66.9199 67.2164 67.0319 67.1043 67.1813C66.9923 67.2933 66.8803 67.4053 66.7682 67.5174C59.337 74.9487 53.5861 83.6123 49.6651 93.0601H50.0759C48.5074 96.9811 47.2378 101.052 46.3415 105.234C45.7067 105.346 45.1839 105.719 44.9225 106.28H18.1848C17.662 106.28 17.2512 106.69 17.2512 107.213C17.2139 107.773 17.662 108.184 18.1848 108.184ZM68.0753 68.1522C78.1953 58.1816 91.0413 51.0117 105.381 47.8002C105.568 48.0616 105.829 48.2856 106.128 48.435V50.1901C101.311 51.2357 96.6428 52.7668 92.199 54.7087V54.3352C84.0955 57.9949 76.6268 63.1482 70.1665 69.6086C70.0544 69.7206 69.9424 69.8326 69.8304 69.982C69.7184 70.094 69.6063 70.2061 69.4943 70.3181C62.8099 77.0025 57.5818 84.6952 53.8849 93.0974H54.2956C52.5032 97.3546 51.0841 101.761 50.0759 106.317H48.3207C48.1713 106.018 47.9473 105.757 47.6859 105.57C50.7854 91.1556 58.0299 78.2722 68.0753 68.1522ZM105.605 57.8082C100.937 58.9658 96.4561 60.6462 92.1616 62.7748V62.4387C86 65.6129 80.2865 69.758 75.2452 74.7993C75.1331 74.9113 75.0211 75.0233 74.9091 75.1354C74.797 75.2474 74.685 75.3594 74.573 75.4715C69.3449 80.6995 65.0505 86.6744 61.8763 93.0974H62.2124C60.2705 97.1678 58.7021 101.425 57.6192 105.794C57.2457 105.831 56.9097 106.018 56.6856 106.317C56.6483 106.317 56.6483 106.317 56.6109 106.317H55.1545C58.1046 93.7696 64.4903 82.5293 73.2286 73.6417C82.1536 64.7913 93.506 58.331 106.128 55.3435V56.7999C106.128 56.8372 106.128 56.8372 106.128 56.8746C105.867 57.0986 105.68 57.4347 105.605 57.8082ZM106.128 54.0365C101.311 55.1568 96.6428 56.7625 92.199 58.8538V58.4803C85.1037 61.9159 78.5313 66.5465 72.7805 72.2973C72.6685 72.4093 72.5564 72.5214 72.4444 72.6334C72.3324 72.7454 72.2204 72.8574 72.1083 72.9695C66.1708 78.907 61.4282 85.7408 57.9553 93.0974H58.3287C56.4242 97.3172 54.9305 101.761 53.8849 106.317H51.4576C54.5197 92.6867 61.3908 80.4381 70.9133 70.8409C80.4732 61.4304 92.6471 54.634 106.203 51.5718V54.0365H106.128Z" fill="url(#paint12_linear_2221_16040)"/>
<path opacity="0.05" d="M17.438 113.822H58.9262C59.1876 114.158 59.5984 114.382 60.0838 114.382C60.5693 114.382 60.9801 114.158 61.2415 113.822H65.5733C65.8347 114.084 66.1707 114.233 66.5815 114.233C67.3657 114.233 68.0379 113.598 68.0379 112.777C68.0379 112.216 67.7018 111.731 67.2537 111.507C69.4196 100.341 74.8717 90.3333 82.6017 82.5286C90.3691 74.9479 100.302 69.5705 111.356 67.4046C111.58 67.8527 112.065 68.1888 112.626 68.1888C113.41 68.1888 114.082 67.554 114.082 66.7324C114.082 66.359 113.933 65.9856 113.671 65.7242V61.3924C114.007 61.131 114.231 60.7202 114.231 60.2347C114.231 59.7493 114.007 59.3385 113.671 59.0771V17.6262C113.671 17.1034 113.26 16.6926 112.738 16.6926C112.215 16.6926 111.804 17.1034 111.804 17.6262V59.1891C111.58 59.4132 111.431 59.6746 111.393 60.0107C104.672 61.131 98.2112 63.3342 92.2363 66.5084V66.1723C86.9709 69.0477 82.0789 72.7073 77.7098 77.0765C77.5977 77.1885 77.4857 77.3005 77.3737 77.4126C77.2617 77.5246 77.1496 77.6366 77.0376 77.7487C72.4817 82.3045 68.6727 87.4579 65.7226 93.022H66.0587C63.0713 98.8102 61.0174 105.009 59.9344 111.432C59.5984 111.47 59.337 111.619 59.1129 111.843H17.438C16.9152 111.843 16.5044 112.254 16.5044 112.777C16.5044 113.299 16.9152 113.822 17.438 113.822ZM77.9712 78.4582C86.9709 69.5705 98.6219 63.3342 111.617 61.131C111.655 61.2057 111.692 61.243 111.767 61.2803V63.1848C104.858 64.3798 98.2485 66.7324 92.1989 70.168V69.8693C87.7551 72.4833 83.6473 75.6574 79.913 79.3544C79.801 79.4664 79.689 79.5785 79.5769 79.6905C79.4649 79.8025 79.3529 79.9146 79.2408 80.0266C75.3198 83.9476 71.9963 88.3168 69.3076 93.022H69.6063C66.3948 98.8849 64.1542 105.233 63.0339 111.88H61.1294C61.0921 111.843 61.0174 111.768 60.9801 111.731C63.1086 98.9596 69.2329 87.3832 77.9712 78.4582ZM82.0416 81.5577C81.9296 81.6697 81.8175 81.7817 81.7055 81.9311C81.5935 82.0431 81.4814 82.1552 81.3694 82.2672C78.0459 85.5907 75.2078 89.213 72.8178 93.134H73.0792C69.7557 98.7729 67.4031 104.972 66.1707 111.432C65.8347 111.507 65.5733 111.731 65.3492 111.992H64.0795C66.2081 99.8558 72.071 88.9516 80.3985 80.5121C88.8007 72.2592 99.6675 66.471 111.767 64.3425V65.6121C111.505 65.7989 111.319 66.0976 111.207 66.4337C104.447 67.7407 98.0244 70.2053 92.1989 73.7529V73.4915C88.5393 75.7321 85.1411 78.4582 82.0416 81.5577Z" fill="url(#paint13_linear_2221_16040)"/>
<path opacity="0.05" d="M17.1362 118.411H70.7983C71.0224 118.598 71.3211 118.71 71.6572 118.71C72.4414 118.71 73.1136 118.075 73.1136 117.254C73.1136 116.619 72.7028 116.096 72.1426 115.872C73.5617 104.594 78.6777 94.437 86.221 86.6696C94.0257 78.9396 104.295 73.7116 115.722 72.2925C115.909 72.8527 116.469 73.2635 117.104 73.2635C117.888 73.2635 118.56 72.6286 118.56 71.8071C118.56 71.471 118.448 71.2096 118.261 70.9482V17.3235C118.261 16.8007 117.851 16.3899 117.328 16.3899C116.805 16.3899 116.394 16.8007 116.394 17.3235V68.5582C107.693 69.4545 99.4778 72.4046 92.2333 77.1472V76.9231C89.3578 78.8649 86.6318 81.1055 84.1298 83.6075C84.0178 83.7195 83.9057 83.8316 83.7937 83.9436C83.6817 84.0556 83.5696 84.1676 83.4576 84.2797C80.7316 87.0057 78.3416 89.9558 76.2877 93.0927H76.5491C72.068 100.151 69.3046 108.142 68.4457 116.544H17.1362C16.6134 116.544 16.2026 116.955 16.2026 117.478C16.2026 118.001 16.6134 118.411 17.1362 118.411ZM84.3165 84.7652C92.7561 76.4376 103.922 70.8735 116.32 69.5291V70.6121C116.021 70.7988 115.797 71.0602 115.685 71.3963C107.171 72.4419 99.1417 75.5414 92.1586 80.4707V80.284C89.9927 81.8524 87.9388 83.6075 85.9969 85.5494C85.8849 85.6614 85.7729 85.7734 85.6609 85.9228C85.5488 86.0348 85.4368 86.1468 85.3248 86.2589C83.1589 88.4248 81.2544 90.7027 79.5366 93.13H79.7606C75.1301 99.9265 72.2173 107.694 71.2091 115.909C70.873 116.021 70.6116 116.245 70.4249 116.544H69.3419C70.6489 104.221 76.1384 93.1674 84.3165 84.7652Z" fill="url(#paint14_linear_2221_16040)"/>
<path opacity="0.05" d="M20.3888 98.1385C21.173 98.1385 21.8826 97.6531 22.1813 96.9435H24.646C24.982 97.429 25.5422 97.7651 26.2144 97.7651C26.8492 97.7651 27.4093 97.429 27.7828 96.9435H29.874C30.2101 97.4663 30.8076 97.8398 31.4797 97.8398C32.1519 97.8398 32.7494 97.5037 33.0855 96.9435H34.878C35.2141 97.2796 35.6995 97.5037 36.2597 97.5037C37.3053 97.5037 38.1642 96.6448 38.1642 95.5992C38.1642 95.039 37.9028 94.5162 37.492 94.1428C41.8985 80.8113 49.3671 68.8615 59.039 59.115C68.7855 49.4804 80.698 42.0865 93.9921 37.68C94.3282 38.0908 94.851 38.3522 95.4112 38.3522C96.4568 38.3522 97.3157 37.4933 97.3157 36.4477C97.3157 35.9249 97.0916 35.4394 96.7555 35.1033V33.2362C97.2783 32.9001 97.6517 32.3026 97.6517 31.6304C97.6517 30.9582 97.3157 30.3608 96.7555 30.0247V27.9708C97.241 27.6347 97.5397 27.0372 97.5397 26.4024C97.5397 25.7676 97.241 25.2074 96.7555 24.834V22.3693C97.465 22.0706 97.9505 21.3984 97.9505 20.5769C97.9505 19.5313 97.0916 18.6724 96.046 18.6724C95.1871 18.6724 94.4776 19.2325 94.2162 19.9794C93.544 20.1661 92.8718 20.3528 92.1997 20.5395V20.0541C75.4326 25.058 60.0846 34.1324 47.3879 46.8664C47.2759 46.9784 47.1639 47.0905 47.0518 47.2025C46.9398 47.3145 46.8278 47.4266 46.7157 47.5386C33.8324 60.422 24.646 76.0314 19.7167 93.0972H20.1648C20.0527 93.508 19.9407 93.9561 19.8287 94.3669C19.0818 94.6283 18.5217 95.3378 18.5217 96.1967C18.4843 97.2796 19.3432 98.1385 20.3888 98.1385ZM48.5082 48.4722C61.1302 35.9996 76.9263 26.7011 94.5523 21.8839C94.627 21.9586 94.739 22.0706 94.8137 22.1453V24.6473C94.3656 24.834 94.0295 25.2074 93.8054 25.6182C93.2453 25.7676 92.6851 25.9543 92.125 26.1036V25.6182C76.8143 30.4354 62.7733 38.9123 51.0849 50.6007C50.9729 50.7128 50.8608 50.8248 50.7488 50.9368C50.6368 51.0488 50.5247 51.1609 50.4127 51.2729C38.5376 63.148 29.986 77.4504 25.1688 93.0599H25.6542C25.5422 93.3959 25.4675 93.6947 25.3555 94.0308C24.9074 94.2175 24.5713 94.5909 24.3846 95.039H21.8826C21.8079 94.927 21.7332 94.8523 21.6212 94.7776C26.5131 77.0397 35.9236 61.1315 48.5082 48.4722ZM93.5067 36.0743C93.0585 36.2236 92.6104 36.373 92.1997 36.5224V36.0743C79.5403 40.5554 67.9266 47.8373 58.1427 57.6212C58.0307 57.7333 57.9187 57.8453 57.8066 57.9573C57.6946 58.0694 57.5826 58.1814 57.4706 58.2934C47.4999 68.264 40.1433 80.1391 35.6622 93.0599H36.1103C36.0356 93.2466 35.9609 93.4706 35.9236 93.6573C35.1767 93.7694 34.6166 94.3295 34.3925 95.0017H33.1975C33.0482 94.7029 32.7868 94.4042 32.5254 94.2175C37.1186 79.467 45.222 66.2102 55.9021 55.53C66.5076 45.0739 79.5777 37.1199 94.1788 32.6013C94.3656 32.9001 94.627 33.1241 94.9631 33.2735V34.4685C94.1415 34.7672 93.6187 35.3647 93.5067 36.0743ZM93.9174 30.8836C93.3199 31.0703 92.7598 31.257 92.1623 31.4437V30.9582C78.196 35.6261 65.4246 43.5055 54.7072 54.223C54.5951 54.335 54.4831 54.4471 54.3711 54.5964C54.2591 54.7085 54.147 54.8205 54.035 54.9325C43.1308 65.8367 35.1767 78.8695 30.5462 93.1345H31.0316C30.9196 93.4706 30.8076 93.8067 30.7329 94.1428C30.2848 94.3295 29.9487 94.6656 29.762 95.0764H28.0068C27.8575 94.7403 27.6334 94.4789 27.3347 94.2548C32.0772 78.1226 40.8155 63.7082 52.3545 52.0945C63.8936 40.7421 78.1586 32.1532 94.1042 27.4853C94.2909 27.7841 94.5896 28.0081 94.9257 28.1575V29.9126C94.4402 30.0994 94.1042 30.4728 93.9174 30.8836Z" fill="url(#paint15_linear_2221_16040)"/>
<path opacity="0.05" d="M227.83 122.112C227.83 121.589 227.419 121.179 226.896 121.179H170.62C170.583 121.141 170.545 121.104 170.508 121.029C170.247 110.835 166.923 101.163 160.986 93.0966H161.172C159.828 91.3414 158.372 89.661 156.766 88.0552C156.654 87.9432 156.542 87.8312 156.392 87.7191C156.28 87.6071 156.168 87.4951 156.056 87.383C154.451 85.7773 152.77 84.3209 151.015 82.9766V83.1633C142.911 77.2257 133.277 73.9022 123.082 73.6408C123.045 73.6034 123.008 73.5661 122.933 73.5287V17.2153C122.933 16.6925 122.522 16.2817 121.999 16.2817H121.962H121.925C121.402 16.2817 120.991 16.6925 120.991 17.2153V73.4541C120.954 73.4914 120.879 73.5287 120.842 73.5661C110.348 73.8275 100.415 77.3377 92.1622 83.6487V83.4994C90.6685 84.6943 89.2121 85.964 87.8304 87.3457C87.7184 87.4577 87.6063 87.5698 87.4943 87.7191C87.3823 87.8312 87.2702 87.9432 87.1582 88.0552C85.5525 89.661 84.0961 91.3414 82.7517 93.0966H82.9384C77.0009 101.2 73.6773 110.835 73.4159 121.029C73.3786 121.067 73.3413 121.104 73.3039 121.179H17.0278C16.505 121.179 16.0942 121.589 16.0942 122.112V122.15V122.187C16.0942 122.71 16.505 123.12 17.0278 123.12H73.2666C73.3039 123.158 73.3412 123.195 73.3786 123.27C73.64 133.763 77.1502 143.696 83.4612 151.949H83.3119C84.5068 153.443 85.7765 154.899 87.1582 156.281C87.2702 156.393 87.3823 156.505 87.4943 156.617C87.6063 156.729 87.7184 156.841 87.8304 156.991C89.2121 158.372 90.6311 159.642 92.1622 160.837V160.688C100.378 166.999 110.348 170.509 120.842 170.77C120.879 170.808 120.916 170.845 120.991 170.882V227.121C120.991 227.644 121.402 228.055 121.925 228.055H121.962H121.999C122.522 228.055 122.933 227.644 122.933 227.121V170.845C122.97 170.808 123.045 170.77 123.082 170.733C133.277 170.472 142.949 167.148 151.015 161.21V161.397C152.77 160.053 154.451 158.596 156.056 156.991C156.168 156.879 156.28 156.767 156.392 156.655C156.504 156.543 156.616 156.43 156.766 156.318C158.147 154.937 159.417 153.518 160.612 151.987H160.463C166.774 143.771 170.284 133.801 170.545 123.307C170.583 123.27 170.62 123.232 170.657 123.158H226.896C227.419 123.158 227.83 122.747 227.83 122.224C227.83 122.187 227.83 122.149 227.83 122.112C227.83 122.149 227.83 122.149 227.83 122.112ZM155.87 155.87C147.467 164.161 136.078 169.426 123.456 169.837C123.456 169.799 123.456 169.762 123.456 169.725C123.456 168.94 122.821 168.268 121.999 168.268H121.962H121.925C121.14 168.268 120.468 168.903 120.468 169.725C120.468 169.762 120.468 169.799 120.468 169.837C107.921 169.426 96.5313 164.198 88.1665 155.945C79.951 147.543 74.7229 136.191 74.3122 123.643C74.3495 123.643 74.3869 123.643 74.4242 123.643C75.2084 123.643 75.8806 123.008 75.8806 122.187V122.15V122.112C75.8806 121.328 75.2458 120.656 74.4242 120.656C74.3869 120.656 74.3495 120.656 74.3122 120.656C74.7229 108.034 79.9883 96.6441 88.2785 88.242C96.6807 80.0638 107.996 74.9104 120.506 74.4623C120.506 74.4997 120.506 74.537 120.506 74.5744C120.506 75.3586 121.14 76.0307 121.962 76.0307H121.999H122.037C122.821 76.0307 123.493 75.3959 123.493 74.5744C123.493 74.537 123.493 74.4997 123.493 74.4623C136.003 74.8731 147.281 80.0265 155.683 88.2046C163.973 96.6068 169.238 108.034 169.687 120.656C169.649 120.656 169.612 120.656 169.574 120.656C168.79 120.656 168.118 121.291 168.118 122.112V122.15V122.187C168.118 122.971 168.753 123.643 169.574 123.643C169.612 123.643 169.649 123.643 169.687 123.643C169.201 136.153 164.048 147.468 155.87 155.87Z" fill="url(#paint16_linear_2221_16040)"/>
<path opacity="0.05" d="M224.693 141.754H202.138C201.801 141.157 201.167 140.708 200.42 140.708C199.374 140.708 198.515 141.567 198.515 142.613C198.515 143.173 198.777 143.696 199.15 144.032C195.378 157.401 188.246 169.388 178.723 178.985C169.126 188.47 157.176 195.566 143.845 199.337C143.509 198.964 142.986 198.702 142.426 198.702C141.38 198.702 140.521 199.561 140.521 200.607C140.521 201.354 140.932 201.989 141.567 202.325V224.88C141.567 225.403 141.978 225.813 142.501 225.813C143.023 225.813 143.434 225.403 143.434 224.88V205.499C146.011 204.827 148.513 204.08 151.015 203.184V203.632C162.741 199.337 173.458 192.541 182.57 183.429C182.682 183.317 182.794 183.205 182.906 183.093C183.018 182.981 183.13 182.869 183.242 182.757C192.13 173.869 198.851 163.376 203.146 151.949H202.698C203.706 149.223 204.565 146.459 205.274 143.621H224.655C225.178 143.621 225.589 143.21 225.589 142.688C225.626 142.165 225.216 141.754 224.693 141.754ZM181.636 182.122C171.18 192.429 158.035 200.047 143.397 203.893V202.25C143.92 201.951 144.256 201.391 144.293 200.719C146.534 200.084 148.774 199.337 150.978 198.516V198.964C161.546 194.856 171.217 188.582 179.47 180.33C179.582 180.218 179.694 180.105 179.806 179.993C179.918 179.881 180.03 179.769 180.18 179.657C188.246 171.591 194.408 162.181 198.515 151.911H198.104C199.038 149.484 199.86 147.019 200.569 144.517C201.204 144.48 201.764 144.107 202.1 143.621H203.743C199.822 158.372 192.092 171.591 181.636 182.122Z" fill="url(#paint17_linear_2221_16040)"/>
<path opacity="0.05" d="M225.739 136.116H199.001C198.665 135.593 198.068 135.22 197.395 135.22C196.723 135.22 196.126 135.556 195.79 136.116H187.313C187.275 136.116 187.238 136.116 187.201 136.116C186.939 135.817 186.529 135.631 186.118 135.631C185.334 135.631 184.661 136.265 184.661 137.087C184.661 137.498 184.848 137.908 185.147 138.17C182.234 149.634 176.334 159.941 168.343 168.156C160.052 176.409 149.634 182.459 137.945 185.409C137.684 185.11 137.31 184.923 136.862 184.923C136.078 184.923 135.406 185.558 135.406 186.38C135.406 186.828 135.593 187.201 135.891 187.463C135.891 187.5 135.891 187.537 135.891 187.575V196.051C135.369 196.388 134.995 196.985 134.995 197.657C134.995 198.329 135.331 198.927 135.891 199.263V225.926C135.891 226.449 136.302 226.859 136.825 226.859C137.348 226.859 137.759 226.449 137.759 225.926V199.3C138.319 199.039 138.729 198.516 138.804 197.881C142.987 196.948 147.02 195.715 150.978 194.147V194.558C160.426 190.674 169.089 184.923 176.521 177.455C176.633 177.343 176.745 177.231 176.857 177.119C176.969 177.007 177.081 176.894 177.23 176.782C184.475 169.538 190.114 161.098 193.997 151.949H193.586C195.304 147.804 196.649 143.473 197.62 139.066C198.254 138.954 198.777 138.581 199.039 138.02H225.664C226.187 138.02 226.598 137.61 226.598 137.087C226.672 136.527 226.262 136.116 225.739 136.116ZM175.961 176.036C165.841 186.081 152.92 193.325 138.543 196.5C138.356 196.238 138.095 196.014 137.796 195.865V194.11C142.352 193.101 146.758 191.72 151.015 189.89V190.301C159.418 186.604 167.11 181.376 173.795 174.691C173.907 174.579 174.019 174.467 174.131 174.355C174.243 174.243 174.355 174.131 174.504 174.019C180.964 167.559 186.118 160.09 189.777 151.949H189.367C191.346 147.468 192.84 142.8 193.885 138.02H195.64C195.79 138.319 196.014 138.581 196.275 138.767C193.138 153.07 185.931 165.916 175.961 176.036ZM138.281 186.492C142.688 185.371 146.908 183.84 150.978 181.898V182.235C157.438 179.023 163.376 174.766 168.604 169.538C168.716 169.426 168.828 169.314 168.94 169.202C169.052 169.09 169.164 168.978 169.276 168.866C174.317 163.824 178.463 158.111 181.637 151.949H181.301C183.429 147.655 185.11 143.174 186.267 138.506C186.641 138.469 186.977 138.282 187.201 137.983C187.238 137.983 187.238 137.983 187.275 137.983H188.732C185.744 150.642 179.284 161.957 170.434 170.882C161.583 179.621 150.343 186.006 137.796 188.956V187.5C137.796 187.463 137.796 187.463 137.796 187.425C138.057 187.201 138.244 186.865 138.281 186.492ZM137.796 190.263C142.352 189.218 146.758 187.724 151.015 185.782V186.156C158.409 182.72 165.206 177.94 171.181 172.003C171.293 171.891 171.405 171.779 171.517 171.666C171.629 171.554 171.741 171.442 171.853 171.33C177.604 165.58 182.234 159.045 185.67 151.912H185.296C187.388 147.468 188.993 142.8 190.114 137.983H192.541C189.516 151.539 182.682 163.712 173.272 173.272C163.675 182.795 151.463 189.666 137.796 192.728V190.263Z" fill="url(#paint18_linear_2221_16040)"/>
<path opacity="0.05" d="M226.486 130.477H184.998C184.736 130.141 184.325 129.917 183.84 129.917C183.354 129.917 182.944 130.141 182.682 130.477H178.35C178.089 130.216 177.753 130.067 177.342 130.067C176.558 130.067 175.886 130.701 175.886 131.523C175.886 132.083 176.222 132.569 176.67 132.793C174.504 143.846 169.164 153.779 161.546 161.547C153.741 169.239 143.733 174.729 132.568 176.895C132.344 176.447 131.858 176.111 131.298 176.111C130.514 176.111 129.842 176.745 129.842 177.567C129.842 177.978 129.991 178.314 130.253 178.575V182.907C129.916 183.168 129.692 183.579 129.692 184.065C129.692 184.55 129.916 184.961 130.253 185.222V226.673C130.253 227.196 130.663 227.607 131.186 227.607C131.709 227.607 132.12 227.196 132.12 226.673V185.073C132.344 184.849 132.493 184.587 132.53 184.251C138.991 183.168 145.19 181.077 150.941 178.127V178.463C156.505 175.513 161.621 171.741 166.214 167.148C166.326 167.036 166.438 166.924 166.55 166.812C166.662 166.7 166.774 166.588 166.886 166.476C171.255 162.107 174.915 157.215 177.79 151.95H177.454C180.628 145.975 182.832 139.514 183.952 132.793C184.288 132.755 184.549 132.606 184.773 132.382H226.336C226.859 132.382 227.27 131.971 227.27 131.448C227.27 130.926 226.971 130.477 226.486 130.477ZM165.654 166.14C156.691 174.878 145.152 181.003 132.306 183.168C132.269 183.094 132.232 183.056 132.157 183.019V181.115C138.804 179.994 145.152 177.754 151.015 174.542V174.841C155.721 172.152 160.09 168.866 164.011 164.908C164.123 164.796 164.235 164.684 164.347 164.572C164.459 164.46 164.571 164.348 164.72 164.236C168.455 160.501 171.629 156.393 174.205 151.95H173.907C177.342 145.9 179.732 139.29 180.89 132.382H182.794C182.832 132.419 182.906 132.494 182.944 132.531C180.778 145.489 174.541 157.14 165.654 166.14ZM161.882 162.742C161.994 162.63 162.106 162.518 162.218 162.406C162.33 162.294 162.442 162.182 162.554 162.07C165.654 158.97 168.38 155.572 170.658 151.95H170.396C173.944 146.087 176.446 139.664 177.716 132.942C178.052 132.867 178.313 132.643 178.537 132.382H179.807C177.678 144.481 171.89 155.311 163.637 163.75C155.198 172.078 144.294 177.903 132.157 180.069V178.799C132.418 178.613 132.605 178.314 132.717 177.978C139.178 176.745 145.339 174.43 151.015 171.069V171.331C154.899 168.941 158.559 166.065 161.882 162.742Z" fill="url(#paint19_linear_2221_16040)"/>
<path opacity="0.05" d="M226.784 125.884H173.122C172.898 125.697 172.599 125.585 172.263 125.585C171.479 125.585 170.807 126.22 170.807 127.042C170.807 127.676 171.217 128.199 171.778 128.423C170.321 139.85 165.093 150.12 157.363 157.924C149.596 165.468 139.438 170.584 128.161 172.003C127.974 171.443 127.414 171.032 126.779 171.032C125.995 171.032 125.323 171.667 125.323 172.488C125.323 172.824 125.435 173.086 125.621 173.347V227.009C125.621 227.532 126.032 227.943 126.555 227.943C127.078 227.943 127.489 227.532 127.489 227.009V175.774C135.891 174.915 143.882 172.115 150.94 167.671V167.932C154.077 165.878 157.027 163.488 159.753 160.762C159.865 160.65 159.977 160.538 160.089 160.426C160.201 160.314 160.313 160.202 160.463 160.09C162.965 157.588 165.205 154.862 167.147 151.987H166.923C171.666 144.742 174.616 136.489 175.512 127.826H226.747C227.27 127.826 227.68 127.415 227.68 126.892C227.718 126.295 227.307 125.884 226.784 125.884ZM159.342 159.792C150.94 168.007 139.849 173.496 127.563 174.803V173.72C127.862 173.534 128.086 173.272 128.236 172.936C136.451 171.928 144.218 169.015 151.015 164.385V164.609C153.442 162.891 155.757 160.949 157.886 158.821C157.998 158.709 158.11 158.597 158.222 158.484C158.334 158.372 158.446 158.26 158.558 158.148C160.5 156.207 162.255 154.153 163.824 151.987H163.637C168.566 145.004 171.666 136.975 172.711 128.461C173.047 128.349 173.346 128.125 173.495 127.826H174.578C173.271 140.186 167.67 151.352 159.342 159.792Z" fill="url(#paint20_linear_2221_16040)"/>
</g>
<path d="M49.2553 158.448L45.521 160.24C42.3095 161.771 40.4423 164.684 40.9651 167.485C42.0107 173.273 45.2969 182.87 55.641 188.471C57.6948 189.592 60.5329 189.554 62.9229 188.397L66.6199 186.567L49.2553 158.448Z" fill="#BA810F"/>
<path d="M194.856 158.448L198.591 160.24C201.802 161.771 203.669 164.684 203.147 167.485C202.101 173.273 198.815 182.87 188.471 188.471C186.417 189.592 183.579 189.554 181.189 188.397L177.492 186.567L194.856 158.448Z" fill="#BA810F"/>
<path d="M122.149 13.2943C183.653 13.2943 233.469 60.5707 233.469 118.901C233.469 119.984 233.431 121.067 233.394 122.112C233.506 120.058 233.581 118.004 233.581 115.951C233.581 57.6206 183.728 10.3442 122.261 10.3442C61.9145 10.3442 12.771 55.9029 10.9785 112.739C14.3394 57.2845 62.8108 13.2943 122.149 13.2943Z" fill="#BA810F"/>
<path d="M122 230.93C60.2715 230.93 10.2317 183.654 10.2317 125.324C10.2317 124.241 10.269 123.158 10.3063 122.112C10.1943 124.166 10.1196 126.22 10.1196 128.274C10.1196 186.604 60.1594 233.88 121.888 233.88C182.458 233.88 231.788 188.321 233.581 131.485C230.183 186.94 181.525 230.93 122 230.93Z" fill="#F4E9AE"/>
<path d="M122.187 45.2227C37.3804 41.8618 39.8077 105.756 43.9528 129.431C44.9237 134.995 45.6332 140.56 45.8946 146.198C46.4175 157.289 50.5625 178.052 72.5576 190.301C93.7685 204.155 122.187 203.819 122.187 203.819C122.187 203.819 150.605 204.155 171.816 190.301C193.811 178.052 197.956 157.252 198.479 146.198C198.74 140.597 199.45 134.995 200.421 129.431C204.566 105.756 206.993 41.8618 122.187 45.2227ZM152.285 191.794C152.285 191.794 145.003 193.363 132.419 195.08C125.51 196.014 118.452 196.014 111.544 195.08C98.9593 193.363 91.6773 191.794 91.6773 191.794C52.2803 181.226 56.0893 143.883 56.4628 139.626C56.8362 135.406 58.1805 108.071 58.1805 108.071C96.8307 105.27 108.183 89.3995 108.183 89.3995C117.033 90.2958 126.145 90.4825 135.817 89.3995C135.817 89.3995 147.169 105.27 185.819 108.071C185.819 108.071 187.164 135.369 187.537 139.626C187.911 143.846 191.682 181.226 152.285 191.794Z" fill="#BA810F"/>
<path d="M195.323 75.219C197.456 71.355 191.032 63.7218 180.975 58.1698C170.918 52.6179 161.035 51.2496 158.902 55.1136C156.769 58.9777 163.193 66.6109 173.251 72.1628C183.308 77.7148 193.19 79.0831 195.323 75.219Z" fill="#BA810F"/>
<path d="M158.933 55.1181L160.8 50.2635C162.443 46.0811 165.916 43.5044 169.427 43.8778C176.746 44.662 189.069 47.9109 197.023 60.3461C198.629 62.8481 198.816 66.3957 197.583 69.4952L195.306 75.2086L158.933 55.1181Z" fill="#BA810F"/>
<path d="M70.809 72.0072C80.9025 66.4353 87.3476 58.7713 85.2046 54.8892C83.0615 51.0071 73.1418 52.3769 63.0484 57.9488C52.9549 63.5207 46.5097 71.1847 48.6528 75.0668C50.7958 78.9489 60.7155 77.5791 70.809 72.0072Z" fill="#BA810F"/>
<path d="M85.2169 54.8567L83.3124 50.0021C81.6693 45.8197 78.159 43.2056 74.6488 43.5791C67.2921 44.3633 54.9316 47.6495 46.9028 60.1221C45.297 62.6241 45.073 66.2091 46.3426 69.3086L48.6206 75.0594L85.2169 54.8567Z" fill="#BA810F"/>
<path d="M75.1714 126.332C77.8601 125.921 81.0342 125.622 84.5445 125.622C90.8554 125.622 95.3739 127.078 98.3614 129.879C101.386 132.68 103.179 136.601 103.179 142.128C103.179 147.692 101.461 152.248 98.2494 155.385C95.0752 158.559 89.8098 160.314 83.1628 160.314C80.026 160.314 77.3746 160.164 75.1714 159.903V126.332ZM79.5779 156.505C80.6982 156.692 82.3039 156.766 84.0217 156.766C93.4321 156.766 98.5481 151.501 98.5481 142.277C98.5854 134.211 94.0296 129.132 84.7312 129.132C82.4533 129.132 80.7355 129.319 79.5779 129.58V156.505Z" fill="#BA810F"/>
<path d="M109.117 124.315C111.357 123.942 114.307 123.606 118.079 123.606C122.672 123.606 126.07 124.689 128.199 126.593C130.178 128.311 131.373 130.925 131.373 134.136C131.373 137.423 130.402 139.962 128.572 141.866C126.108 144.48 122.075 145.825 117.519 145.825C116.137 145.825 114.83 145.788 113.785 145.489V159.941H109.117V124.315ZM113.785 141.717C114.793 141.979 116.1 142.091 117.631 142.091C123.27 142.091 126.668 139.364 126.668 134.361C126.668 129.581 123.307 127.303 118.154 127.303C116.1 127.303 114.569 127.452 113.747 127.676V141.717H113.785Z" fill="#BA810F"/>
<path d="M146.272 122.56H133.463V117.929H164.608V122.56H151.762V160.015H146.272V122.56Z" fill="#BA810F"/>
<path d="M122 244C189.379 244 244 189.379 244 122C244 54.6213 189.379 0 122 0C54.6213 0 0 54.6213 0 122C0 189.379 54.6213 244 122 244Z" fill="#FF900E"/>
<path d="M38.1136 140.346L32.0136 141.592C26.7596 142.706 23.0195 146.312 22.7968 150.542C22.3071 159.358 23.6874 174.497 36.8224 186.34C39.4494 188.7 43.5903 189.68 47.5085 188.789L53.564 187.454L38.1136 140.346Z" fill="#1796FF"/>
<path d="M205.885 140.346L211.985 141.637C217.239 142.75 220.98 146.357 221.202 150.587C221.692 159.403 220.312 174.541 207.177 186.385C204.55 188.745 200.409 189.725 196.491 188.834L190.435 187.498L205.885 140.346Z" fill="#1796FF"/>
<path d="M122 216.038C122 216.038 154.414 216.439 178.636 200.632C203.749 186.651 208.468 162.919 209.092 150.274C209.404 143.862 210.205 137.495 211.318 131.128C216.082 104.145 218.843 31.1677 122 34.9969C25.1568 31.1677 27.9174 104.145 32.6817 131.128C33.7948 137.45 34.5963 143.862 34.9079 150.274C35.5313 162.919 40.251 186.651 65.3634 200.632C89.5853 216.439 122 216.038 122 216.038Z" fill="white"/>
<path d="M137.584 85.4443C137.584 85.4443 150.54 103.566 194.665 106.772C194.665 106.772 196.179 137.94 196.624 142.793C197.07 147.647 201.389 190.257 156.418 202.324C156.418 202.324 148.136 204.105 133.754 206.064C125.829 207.133 117.814 207.133 109.933 206.064C95.5514 204.105 87.2696 202.324 87.2696 202.324C42.2988 190.257 46.6178 147.602 47.0631 142.793C47.5083 137.984 49.0222 106.772 49.0222 106.772C93.147 103.566 106.104 85.4443 106.104 85.4443C116.122 86.4684 126.541 86.6911 137.584 85.4443Z" fill="#FAE0D1"/>
<path d="M171.395 46.1531C171.743 44.9225 169.185 43.1233 165.683 42.1344C162.18 41.1456 159.059 41.3416 158.712 42.5723C158.364 43.8029 160.922 45.6021 164.424 46.591C167.927 47.5798 171.048 47.3838 171.395 46.1531Z" fill="#1796FF"/>
<path d="M158.778 42.4324L159.268 41.0521C159.669 39.8499 160.782 39.0039 161.94 38.9594C164.389 38.8703 168.529 39.182 171.468 42.2543C172.047 42.8776 172.225 43.8126 171.913 44.7032L171.335 46.3506L158.778 42.4324Z" fill="#1796FF"/>
<path d="M178.042 57.7602C178.677 56.6501 176.63 54.2857 173.471 52.4791C170.312 50.6725 167.236 50.1078 166.601 51.2178C165.966 52.3279 168.013 54.6923 171.172 56.4989C174.332 58.3056 177.407 58.8702 178.042 57.7602Z" fill="#FFBA31"/>
<path d="M166.703 51.0708L167.505 49.8241C168.217 48.7555 169.464 48.1767 170.621 48.3993C173.026 48.8891 176.944 50.2249 179.081 53.876C179.527 54.5884 179.437 55.5679 178.903 56.3694L177.924 57.8387L166.703 51.0708Z" fill="#FFBA31"/>
<path d="M185.278 49.1661C185.885 48.041 183.782 45.7268 180.579 43.9974C177.377 42.2679 174.288 41.778 173.681 42.9032C173.073 44.0283 175.177 46.3424 178.379 48.0719C181.581 49.8014 184.67 50.2913 185.278 49.1661Z" fill="#18EA49"/>
<path d="M173.783 42.7876L174.54 41.5409C175.208 40.4722 176.454 39.8489 177.612 40.0715C180.016 40.5168 183.979 41.7635 186.205 45.3701C186.651 46.0825 186.606 47.062 186.116 47.8635L185.181 49.3328L173.783 42.7876Z" fill="#18EA49"/>
<path d="M192.402 60.7266C193.11 59.6612 191.225 57.1655 188.193 55.1522C185.161 53.1388 182.13 52.3703 181.422 53.4356C180.715 54.5009 182.6 56.9966 185.632 59.01C188.664 61.0233 191.695 61.7919 192.402 60.7266Z" fill="#EA2F2F"/>
<path d="M181.53 53.3411L182.421 52.1389C183.178 51.1148 184.469 50.625 185.582 50.9367C187.942 51.5601 191.771 53.163 193.641 56.9922C193.997 57.7491 193.908 58.7287 193.285 59.4856L192.216 60.8659L181.53 53.3411Z" fill="#EA2F2F"/>
<path d="M87.4031 156.818C99.3543 156.818 109.043 147.13 109.043 135.179C109.043 123.228 99.3543 113.54 87.4031 113.54C75.452 113.54 65.7637 123.228 65.7637 135.179C65.7637 147.13 75.452 156.818 87.4031 156.818Z" fill="white"/>
<path d="M89.7632 153.346C99.6733 153.346 107.707 145.313 107.707 135.403C107.707 125.492 99.6733 117.459 89.7632 117.459C79.8531 117.459 71.8193 125.492 71.8193 135.403C71.8193 145.313 79.8531 153.346 89.7632 153.346Z" fill="#020202"/>
<path d="M158.778 156.818C170.729 156.818 180.417 147.13 180.417 135.179C180.417 123.228 170.729 113.54 158.778 113.54C146.827 113.54 137.139 123.228 137.139 135.179C137.139 147.13 146.827 156.818 158.778 156.818Z" fill="white"/>
<path d="M156.373 153.346C166.284 153.346 174.317 145.313 174.317 135.403C174.317 125.492 166.284 117.459 156.373 117.459C146.463 117.459 138.43 125.492 138.43 135.403C138.43 145.313 146.463 153.346 156.373 153.346Z" fill="#020202"/>
<path d="M159.624 174.541C167.739 174.541 174.317 171.53 174.317 167.817C174.317 164.104 167.739 161.094 159.624 161.094C151.509 161.094 144.931 164.104 144.931 167.817C144.931 171.53 151.509 174.541 159.624 174.541Z" fill="#FCC8C8"/>
<path d="M86.5572 174.541C94.6722 174.541 101.251 171.53 101.251 167.817C101.251 164.104 94.6722 161.094 86.5572 161.094C78.4422 161.094 71.8638 164.104 71.8638 167.817C71.8638 171.53 78.4422 174.541 86.5572 174.541Z" fill="#FCC8C8"/>
<path d="M149.561 101.875C149.561 101.875 151.209 95.7302 153.791 95.3295C156.017 94.9733 173.783 94.7952 180.239 109.711C180.863 111.091 178.993 112.917 177.969 111.982C175.074 109.266 170.666 106.416 164.834 106.016C153.123 105.214 148.448 104.769 149.561 101.875Z" fill="#1B1E26"/>
<path d="M94.8836 101.875C94.8836 101.875 93.2361 95.7302 90.6536 95.3295C88.4274 94.9733 70.6617 94.7952 64.2054 109.711C63.5821 111.091 65.4522 112.917 66.4763 111.982C69.3704 109.266 73.7784 106.416 79.6113 106.016C91.3215 105.214 95.9967 104.769 94.8836 101.875Z" fill="#1B1E26"/>
<path d="M194.1 90.8914C196.655 86.2626 188.988 77.1342 176.975 70.5025C164.961 63.8708 153.151 62.2471 150.596 66.8759C148.041 71.5047 155.708 80.6331 167.721 87.2648C179.735 93.8965 191.545 95.5201 194.1 90.8914Z" fill="#1796FF"/>
<path d="M150.586 66.8768L152.857 61.0885C154.771 56.1016 158.957 52.9848 163.142 53.4301C171.914 54.3651 186.652 58.2834 196.136 73.1549C198.05 76.1381 198.317 80.3681 196.803 84.0637L194.087 90.9206L150.586 66.8768Z" fill="#1796FF"/>
<path d="M66.6993 40.7855C57.5715 45.8169 37.8912 57.3045 34.3737 73.1556C34.1066 74.4468 34.4183 75.7826 35.3088 76.7621C36.0657 77.6081 37.2234 78.6322 39.0044 79.5673C40.919 80.5468 43.2788 79.7899 44.2139 77.8308C47.108 71.9089 55.6124 59.0855 77.0292 51.3826C79.5226 50.4921 80.5912 47.5979 79.3 45.2826C78.5876 44.0804 77.8307 42.7446 76.9847 41.5424C74.8474 38.4702 69.9942 38.96 66.6993 40.7855Z" fill="#424242"/>
<path d="M55.9678 43.5455C55.9678 43.5455 47.1073 47.7309 43.9014 52.4506C43.9014 52.4506 42.343 55.2557 44.6138 57.4375C46.8846 59.6192 54.1868 68.4798 54.1868 68.4798C54.1868 68.4798 54.4095 69.0141 55.5226 68.5689C56.5912 68.1236 65.4963 59.263 68.8357 58.8623C72.1751 58.4616 60.7766 41.6309 55.9678 43.5455Z" fill="#424242"/>
<path d="M74.9311 85.5039C86.9444 78.8722 94.6117 69.7438 92.0565 65.115C89.5012 60.4862 77.6911 62.1099 65.6778 68.7415C53.6645 75.3732 45.9972 84.5016 48.5524 89.1304C51.1076 93.7592 62.9177 92.1355 74.9311 85.5039Z" fill="#1796FF"/>
<path d="M92.0789 65.0958L89.8081 59.3075C87.8935 54.3206 83.7081 51.2038 79.4782 51.6491C70.7067 52.5841 55.9687 56.5024 46.4848 71.3739C44.5702 74.3571 44.303 78.5871 45.8169 82.2827L48.533 89.1396L92.0789 65.0958Z" fill="#1796FF"/>
<defs>
<linearGradient id="paint0_linear_2221_16040" x1="145.983" y1="58.4043" x2="225.426" y2="58.4043" gradientUnits="userSpaceOnUse">
<stop stop-color="white"/>
<stop offset="0.4731" stop-color="#E4C87F"/>
<stop offset="1" stop-color="#231F20"/>
</linearGradient>
<linearGradient id="paint1_linear_2221_16040" x1="18.4828" y1="185.905" x2="97.928" y2="185.905" gradientUnits="userSpaceOnUse">
<stop stop-color="white"/>
<stop offset="0.4731" stop-color="#E4C87F"/>
<stop offset="1" stop-color="#231F20"/>
</linearGradient>
<linearGradient id="paint2_linear_2221_16040" x1="18.2754" y1="183.271" x2="103.403" y2="183.271" gradientUnits="userSpaceOnUse">
<stop stop-color="white"/>
<stop offset="0.4731" stop-color="#E4C87F"/>
<stop offset="1" stop-color="#231F20"/>
</linearGradient>
<linearGradient id="paint3_linear_2221_16040" x1="17.231" y1="181.055" x2="108.877" y2="181.055" gradientUnits="userSpaceOnUse">
<stop stop-color="white"/>
<stop offset="0.4731" stop-color="#E4C87F"/>
<stop offset="1" stop-color="#231F20"/>
</linearGradient>
<linearGradient id="paint4_linear_2221_16040" x1="16.5014" y1="178.76" x2="114.197" y2="178.76" gradientUnits="userSpaceOnUse">
<stop stop-color="white"/>
<stop offset="0.4731" stop-color="#E4C87F"/>
<stop offset="1" stop-color="#231F20"/>
</linearGradient>
<linearGradient id="paint5_linear_2221_16040" x1="16.1882" y1="176.764" x2="118.501" y2="176.764" gradientUnits="userSpaceOnUse">
<stop stop-color="white"/>
<stop offset="0.4731" stop-color="#E4C87F"/>
<stop offset="1" stop-color="#231F20"/>
</linearGradient>
<linearGradient id="paint6_linear_2221_16040" x1="140.508" y1="61.0388" x2="225.637" y2="61.0388" gradientUnits="userSpaceOnUse">
<stop stop-color="white"/>
<stop offset="0.4731" stop-color="#E4C87F"/>
<stop offset="1" stop-color="#231F20"/>
</linearGradient>
<linearGradient id="paint7_linear_2221_16040" x1="135.033" y1="63.2556" x2="226.68" y2="63.2556" gradientUnits="userSpaceOnUse">
<stop stop-color="white"/>
<stop offset="0.4731" stop-color="#E4C87F"/>
<stop offset="1" stop-color="#231F20"/>
</linearGradient>
<linearGradient id="paint8_linear_2221_16040" x1="129.713" y1="65.5494" x2="227.41" y2="65.5494" gradientUnits="userSpaceOnUse">
<stop stop-color="white"/>
<stop offset="0.4731" stop-color="#E4C87F"/>
<stop offset="1" stop-color="#231F20"/>
</linearGradient>
<linearGradient id="paint9_linear_2221_16040" x1="125.409" y1="67.5445" x2="227.723" y2="67.5445" gradientUnits="userSpaceOnUse">
<stop stop-color="white"/>
<stop offset="0.4731" stop-color="#E4C87F"/>
<stop offset="1" stop-color="#231F20"/>
</linearGradient>
<linearGradient id="paint10_linear_2221_16040" x1="145.983" y1="185.904" x2="225.426" y2="185.904" gradientUnits="userSpaceOnUse">
<stop stop-color="white"/>
<stop offset="0.4731" stop-color="#E4C87F"/>
<stop offset="1" stop-color="#231F20"/>
</linearGradient>
<linearGradient id="paint11_linear_2221_16040" x1="18.2746" y1="61.0388" x2="103.402" y2="61.0388" gradientUnits="userSpaceOnUse">
<stop stop-color="white"/>
<stop offset="0.4731" stop-color="#E4C87F"/>
<stop offset="1" stop-color="#231F20"/>
</linearGradient>
<linearGradient id="paint12_linear_2221_16040" x1="17.2307" y1="63.2556" x2="108.877" y2="63.2556" gradientUnits="userSpaceOnUse">
<stop stop-color="white"/>
<stop offset="0.4731" stop-color="#E4C87F"/>
<stop offset="1" stop-color="#231F20"/>
</linearGradient>
<linearGradient id="paint13_linear_2221_16040" x1="16.5014" y1="65.5494" x2="114.197" y2="65.5494" gradientUnits="userSpaceOnUse">
<stop stop-color="white"/>
<stop offset="0.4731" stop-color="#E4C87F"/>
<stop offset="1" stop-color="#231F20"/>
</linearGradient>
<linearGradient id="paint14_linear_2221_16040" x1="16.1848" y1="67.5408" x2="118.498" y2="67.5408" gradientUnits="userSpaceOnUse">
<stop stop-color="white"/>
<stop offset="0.4731" stop-color="#E4C87F"/>
<stop offset="1" stop-color="#231F20"/>
</linearGradient>
<linearGradient id="paint15_linear_2221_16040" x1="18.4823" y1="58.405" x2="97.9274" y2="58.405" gradientUnits="userSpaceOnUse">
<stop stop-color="white"/>
<stop offset="0.4731" stop-color="#E4C87F"/>
<stop offset="1" stop-color="#231F20"/>
</linearGradient>
<linearGradient id="paint16_linear_2221_16040" x1="16.0837" y1="122.154" x2="227.825" y2="122.154" gradientUnits="userSpaceOnUse">
<stop stop-color="white"/>
<stop offset="0.4731" stop-color="#E4C87F"/>
<stop offset="1" stop-color="#231F20"/>
</linearGradient>
<linearGradient id="paint17_linear_2221_16040" x1="140.508" y1="183.271" x2="225.637" y2="183.271" gradientUnits="userSpaceOnUse">
<stop stop-color="white"/>
<stop offset="0.4731" stop-color="#E4C87F"/>
<stop offset="1" stop-color="#231F20"/>
</linearGradient>
<linearGradient id="paint18_linear_2221_16040" x1="135.033" y1="181.055" x2="226.68" y2="181.055" gradientUnits="userSpaceOnUse">
<stop stop-color="white"/>
<stop offset="0.4731" stop-color="#E4C87F"/>
<stop offset="1" stop-color="#231F20"/>
</linearGradient>
<linearGradient id="paint19_linear_2221_16040" x1="129.713" y1="178.76" x2="227.41" y2="178.76" gradientUnits="userSpaceOnUse">
<stop stop-color="white"/>
<stop offset="0.4731" stop-color="#E4C87F"/>
<stop offset="1" stop-color="#231F20"/>
</linearGradient>
<linearGradient id="paint20_linear_2221_16040" x1="125.409" y1="176.764" x2="227.723" y2="176.764" gradientUnits="userSpaceOnUse">
<stop stop-color="white"/>
<stop offset="0.4731" stop-color="#E4C87F"/>
<stop offset="1" stop-color="#231F20"/>
</linearGradient>
</defs>
</svg>
