<svg width="375" height="146" viewBox="0 0 375 146" fill="none" xmlns="http://www.w3.org/2000/svg">
<rect y="4" width="375" height="6" rx="2" fill="url(#paint0_linear_2018_8990)"/>
<g filter="url(#filter0_i_2018_8990)">
<path d="M6 2H369V114C369 129.464 356.464 142 341 142H34C18.536 142 6 129.464 6 114V2Z" fill="#0076CC"/>
</g>
<g filter="url(#filter1_f_2018_8990)">
<path d="M16 8H359V110C359 125.464 346.464 138 331 138H44C28.536 138 16 125.464 16 110V8Z" fill="url(#paint1_linear_2018_8990)"/>
</g>
<path d="M16.5 8.5H358.5V112C358.5 122.77 349.77 131.5 339 131.5H36C25.2304 131.5 16.5 122.77 16.5 112V8.5Z" stroke="#77BDFF"/>
<rect x="6" y="2" width="363" height="10" fill="url(#paint2_linear_2018_8990)"/>
<g opacity="0.4" filter="url(#filter2_f_2018_8990)">
<path d="M11.084 8H363.916L369 11.5L363.916 15H11.084L6 11.5L11.084 8Z" fill="#003E61"/>
</g>
<g filter="url(#filter3_f_2018_8990)">
<path d="M11.084 11H363.916L369 11.5L363.916 12H11.084L6 11.5L11.084 11Z" fill="#0562A5"/>
</g>
<defs>
<filter id="filter0_i_2018_8990" x="6" y="-2" width="363" height="144" filterUnits="userSpaceOnUse" color-interpolation-filters="sRGB">
<feFlood flood-opacity="0" result="BackgroundImageFix"/>
<feBlend mode="normal" in="SourceGraphic" in2="BackgroundImageFix" result="shape"/>
<feColorMatrix in="SourceAlpha" type="matrix" values="0 0 0 0 0 0 0 0 0 0 0 0 0 0 0 0 0 0 127 0" result="hardAlpha"/>
<feOffset dy="-6"/>
<feGaussianBlur stdDeviation="2"/>
<feComposite in2="hardAlpha" operator="arithmetic" k2="-1" k3="1"/>
<feColorMatrix type="matrix" values="0 0 0 0 0.0132465 0 0 0 0 0.163159 0 0 0 0 0.454167 0 0 0 0.25 0"/>
<feBlend mode="normal" in2="shape" result="effect1_innerShadow_2018_8990"/>
</filter>
<filter id="filter1_f_2018_8990" x="8" y="0" width="359" height="146" filterUnits="userSpaceOnUse" color-interpolation-filters="sRGB">
<feFlood flood-opacity="0" result="BackgroundImageFix"/>
<feBlend mode="normal" in="SourceGraphic" in2="BackgroundImageFix" result="shape"/>
<feGaussianBlur stdDeviation="4" result="effect1_foregroundBlur_2018_8990"/>
</filter>
<filter id="filter2_f_2018_8990" x="1" y="3" width="373" height="17" filterUnits="userSpaceOnUse" color-interpolation-filters="sRGB">
<feFlood flood-opacity="0" result="BackgroundImageFix"/>
<feBlend mode="normal" in="SourceGraphic" in2="BackgroundImageFix" result="shape"/>
<feGaussianBlur stdDeviation="2.5" result="effect1_foregroundBlur_2018_8990"/>
</filter>
<filter id="filter3_f_2018_8990" x="5" y="10" width="365" height="3" filterUnits="userSpaceOnUse" color-interpolation-filters="sRGB">
<feFlood flood-opacity="0" result="BackgroundImageFix"/>
<feBlend mode="normal" in="SourceGraphic" in2="BackgroundImageFix" result="shape"/>
<feGaussianBlur stdDeviation="0.5" result="effect1_foregroundBlur_2018_8990"/>
</filter>
<linearGradient id="paint0_linear_2018_8990" x1="187.5" y1="4" x2="187.5" y2="10" gradientUnits="userSpaceOnUse">
<stop stop-color="#E6994F"/>
<stop offset="0.244792" stop-color="#F3D0AE"/>
<stop offset="0.723958" stop-color="#E6994F"/>
<stop offset="1" stop-color="#995514"/>
</linearGradient>
<linearGradient id="paint1_linear_2018_8990" x1="187.5" y1="8" x2="187.5" y2="138" gradientUnits="userSpaceOnUse">
<stop stop-color="#0785DF"/>
<stop offset="0.546875" stop-color="#0388E9"/>
<stop offset="1" stop-color="#1278C2" stop-opacity="0.49"/>
</linearGradient>
<linearGradient id="paint2_linear_2018_8990" x1="187.5" y1="2" x2="187.5" y2="12" gradientUnits="userSpaceOnUse">
<stop stop-color="#1C94EC"/>
<stop offset="0.40625" stop-color="#49B3FF"/>
<stop offset="1" stop-color="#158DE4"/>
</linearGradient>
</defs>
</svg>
