<svg width="44" height="44" viewBox="0 0 44 44" fill="none" xmlns="http://www.w3.org/2000/svg">
<g clip-path="url(#clip0_2073_7900)">
<path d="M40.1893 15.2294C36.6611 8.00892 32.8806 7.50453 29.3611 9.22558C28.2935 9.74729 27.3763 10.4164 26.7099 11.2935H17.2917C16.6253 10.4164 15.7081 9.74729 14.6406 9.22558C11.1209 7.50453 7.34033 8.00892 3.81217 15.2294C0.281153 22.4507 -1.65929 33.6537 1.86039 35.375C4.3067 36.5701 8.74339 32.8684 12.4078 28.0777H31.5908C35.2553 32.8684 39.692 36.5701 42.1383 35.375C45.6607 33.6537 43.7175 22.4507 40.1893 15.2294ZM16.429 19.7415C16.429 20.0332 16.1868 20.2697 15.8886 20.2697H13.3048V22.918C13.3048 23.2097 13.0641 23.4462 12.766 23.4462H11.8517H10.9374C10.6408 23.4462 10.3986 23.2097 10.3986 22.918V20.2696H7.81487C7.51687 20.2696 7.27454 20.0331 7.27454 19.7414V17.9494C7.27454 17.6578 7.51678 17.4214 7.81487 17.4214H10.3987V14.7723C10.3987 14.4808 10.6409 14.2442 10.9375 14.2442H11.8519H12.7662C13.0643 14.2442 13.305 14.4807 13.305 14.7723V17.4214H15.8888C16.187 17.4214 16.4291 17.6579 16.4291 17.9494V19.7415H16.429ZM33.1371 15.2317C33.1371 16.1424 32.4006 16.8804 31.4891 16.8804C30.5776 16.8804 29.841 16.1424 29.841 15.2317C29.841 14.3209 30.5777 13.5829 31.4891 13.5829C32.4005 13.5829 33.1371 14.3209 33.1371 15.2317ZM28.0899 20.2796C27.1785 20.2796 26.4419 19.5409 26.4419 18.6302C26.4419 17.7209 27.1786 16.9822 28.0899 16.9822C29.0013 16.9822 29.7379 17.7209 29.7379 18.6302C29.7379 19.5408 29.0013 20.2796 28.0899 20.2796ZM34.8944 20.2796C33.983 20.2796 33.2464 19.5409 33.2464 18.6302C33.2464 17.7209 33.983 16.9822 34.8944 16.9822C35.8058 16.9822 36.5424 17.7209 36.5424 18.6302C36.5424 19.5408 35.8059 20.2796 34.8944 20.2796ZM31.4891 23.6788C30.5776 23.6788 29.841 22.9408 29.841 22.0301C29.841 21.1193 30.5777 20.3813 31.4891 20.3813C32.4005 20.3813 33.1371 21.1193 33.1371 22.0301C33.1371 22.9408 32.4006 23.6788 31.4891 23.6788Z" fill="white"/>
</g>
<defs>
<clipPath id="clip0_2073_7900">
<rect width="44" height="44" fill="white"/>
</clipPath>
</defs>
</svg>
